<svg width="181" height="41" viewBox="0 0 181 41" fill="none" xmlns="http://www.w3.org/2000/svg">
<path d="M51.6149 31.3145C50.4395 31.3145 49.264 31.2733 48.0885 31.1908C46.9337 31.1289 45.7273 30.964 44.4693 30.6959V9.90856C45.4592 9.72296 46.5419 9.58892 47.7173 9.50643C48.8928 9.40332 49.9858 9.35176 50.9963 9.35176C52.3573 9.35176 53.605 9.45487 54.7392 9.66109C55.8941 9.8467 56.8839 10.1767 57.7088 10.651C58.5337 11.1253 59.173 11.7543 59.6267 12.5379C60.101 13.3009 60.3382 14.2496 60.3382 15.3838C60.3382 17.0954 59.5133 18.4462 57.8635 19.4361C59.2246 19.9516 60.1526 20.6528 60.6475 21.5396C61.1425 22.4263 61.3899 23.4265 61.3899 24.5401C61.3899 26.7879 60.565 28.479 58.9152 29.6132C57.2861 30.7474 54.8526 31.3145 51.6149 31.3145ZM49.1712 21.6942V27.2313C49.5218 27.2726 49.9033 27.3035 50.3157 27.3241C50.7282 27.3447 51.1819 27.355 51.6768 27.355C53.1204 27.355 54.2855 27.1488 55.1723 26.7364C56.0591 26.3239 56.5024 25.5609 56.5024 24.4473C56.5024 23.4574 56.1312 22.7563 55.3888 22.3438C54.6464 21.9108 53.5844 21.6942 52.2027 21.6942H49.1712ZM49.1712 18.0131H51.5221C53.0069 18.0131 54.069 17.8275 54.7083 17.4563C55.3476 17.0645 55.6672 16.4458 55.6672 15.6003C55.6672 14.7342 55.3373 14.1258 54.6774 13.7752C54.0174 13.4247 53.0482 13.2494 51.7696 13.2494C51.3572 13.2494 50.9138 13.2597 50.4395 13.2803C49.9652 13.2803 49.5424 13.3009 49.1712 13.3422V18.0131ZM69.5525 31.0361H64.9434V14.7651H69.5525V31.0361ZM69.9856 10.0632C69.9856 10.9087 69.7072 11.579 69.1504 12.0739C68.6142 12.5482 67.9749 12.7854 67.2325 12.7854C66.4901 12.7854 65.8405 12.5482 65.2837 12.0739C64.7475 11.579 64.4794 10.9087 64.4794 10.0632C64.4794 9.21771 64.7475 8.5578 65.2837 8.08349C65.8405 7.58855 66.4901 7.34108 67.2325 7.34108C67.9749 7.34108 68.6142 7.58855 69.1504 8.08349C69.7072 8.5578 69.9856 9.21771 69.9856 10.0632ZM73.7304 10.7128L78.3395 9.97043V14.7651H83.8766V18.6009H78.3395V24.3236C78.3395 25.2928 78.5045 26.0662 78.8345 26.6436C79.1851 27.221 79.8759 27.5097 80.907 27.5097C81.402 27.5097 81.9072 27.4685 82.4228 27.386C82.9589 27.2829 83.4436 27.1488 83.8766 26.9838L84.5262 30.5721C83.9694 30.799 83.3508 30.9949 82.6702 31.1599C81.9897 31.3248 81.1545 31.4073 80.1646 31.4073C78.9067 31.4073 77.8652 31.2424 77.0403 30.9124C76.2154 30.5618 75.5555 30.0875 75.0606 29.4895C74.5657 28.8708 74.2151 28.1284 74.0089 27.2622C73.8232 26.3961 73.7304 25.4372 73.7304 24.3854V10.7128ZM87.4753 10.7128L92.0844 9.97043V14.7651H97.6215V18.6009H92.0844V24.3236C92.0844 25.2928 92.2494 26.0662 92.5793 26.6436C92.9299 27.221 93.6208 27.5097 94.6519 27.5097C95.1468 27.5097 95.6521 27.4685 96.1676 27.386C96.7038 27.2829 97.1884 27.1488 97.6215 26.9838L98.2711 30.5721C97.7143 30.799 97.0956 30.9949 96.4151 31.1599C95.7345 31.3248 94.8993 31.4073 93.9095 31.4073C92.6515 31.4073 91.6101 31.2424 90.7852 30.9124C89.9603 30.5618 89.3004 30.0875 88.8054 29.4895C88.3105 28.8708 87.9599 28.1284 87.7537 27.2622C87.5681 26.3961 87.4753 25.4372 87.4753 24.3854V10.7128ZM115.99 22.8697C115.99 24.1483 115.804 25.3237 115.433 26.3961C115.062 27.4478 114.526 28.3552 113.825 29.1183C113.123 29.8607 112.278 30.4381 111.288 30.8505C110.319 31.263 109.226 31.4692 108.009 31.4692C106.813 31.4692 105.72 31.263 104.73 30.8505C103.761 30.4381 102.926 29.8607 102.225 29.1183C101.523 28.3552 100.977 27.4478 100.585 26.3961C100.193 25.3237 99.9973 24.1483 99.9973 22.8697C99.9973 21.5911 100.193 20.4259 100.585 19.3742C100.998 18.3225 101.554 17.4254 102.255 16.683C102.977 15.9406 103.823 15.3632 104.792 14.9507C105.782 14.5383 106.854 14.3321 108.009 14.3321C109.185 14.3321 110.257 14.5383 111.226 14.9507C112.216 15.3632 113.062 15.9406 113.763 16.683C114.464 17.4254 115.01 18.3225 115.402 19.3742C115.794 20.4259 115.99 21.5911 115.99 22.8697ZM111.288 22.8697C111.288 21.4468 110.999 20.3331 110.422 19.5289C109.865 18.704 109.061 18.2915 108.009 18.2915C106.957 18.2915 106.143 18.704 105.565 19.5289C104.988 20.3331 104.699 21.4468 104.699 22.8697C104.699 24.2926 104.988 25.4269 105.565 26.2724C106.143 27.0973 106.957 27.5097 108.009 27.5097C109.061 27.5097 109.865 27.0973 110.422 26.2724C110.999 25.4269 111.288 24.2926 111.288 22.8697ZM129.366 18.8483C128.954 18.7452 128.469 18.6421 127.912 18.539C127.356 18.4153 126.758 18.3534 126.118 18.3534C125.83 18.3534 125.479 18.3843 125.067 18.4462C124.675 18.4874 124.376 18.539 124.169 18.6009V31.0361H119.56V15.6313C120.385 15.3425 121.354 15.0745 122.468 14.827C123.602 14.5589 124.86 14.4249 126.242 14.4249C126.489 14.4249 126.788 14.4455 127.139 14.4867C127.49 14.5073 127.84 14.5486 128.191 14.6105C128.541 14.6517 128.892 14.7136 129.243 14.7961C129.593 14.8579 129.892 14.9404 130.14 15.0435L129.366 18.8483ZM131.535 23.0244C131.535 21.5808 131.752 20.3228 132.185 19.2505C132.638 18.1575 133.226 17.2501 133.948 16.5283C134.67 15.8065 135.494 15.2601 136.422 14.8889C137.371 14.5177 138.34 14.3321 139.33 14.3321C141.64 14.3321 143.465 15.0435 144.805 16.4665C146.146 17.8688 146.816 19.9413 146.816 22.6841C146.816 22.9522 146.806 23.2512 146.785 23.5812C146.765 23.8905 146.744 24.1689 146.723 24.4164H136.268C136.371 25.365 136.814 26.1177 137.598 26.6745C138.382 27.2313 139.433 27.5097 140.753 27.5097C141.599 27.5097 142.424 27.4375 143.228 27.2932C144.053 27.1282 144.723 26.9323 145.239 26.7054L145.857 30.4484C145.61 30.5721 145.28 30.6959 144.867 30.8196C144.455 30.9433 143.991 31.0464 143.475 31.1289C142.98 31.232 142.444 31.3145 141.867 31.3764C141.289 31.4383 140.712 31.4692 140.134 31.4692C138.67 31.4692 137.392 31.2527 136.299 30.8196C135.226 30.3865 134.329 29.7988 133.608 29.0564C132.906 28.2934 132.38 27.3963 132.03 26.3652C131.7 25.3341 131.535 24.2205 131.535 23.0244ZM142.362 21.2612C142.341 20.8693 142.269 20.4878 142.145 20.1166C142.042 19.7454 141.867 19.4155 141.619 19.1267C141.392 18.838 141.093 18.6009 140.722 18.4153C140.372 18.2297 139.928 18.1369 139.392 18.1369C138.877 18.1369 138.433 18.2297 138.062 18.4153C137.691 18.5802 137.381 18.8071 137.134 19.0958C136.886 19.3845 136.691 19.7248 136.546 20.1166C136.422 20.4878 136.33 20.8693 136.268 21.2612H142.362ZM150.373 15.3219C151.157 15.0951 152.167 14.8889 153.404 14.7033C154.642 14.497 155.941 14.3939 157.302 14.3939C158.684 14.3939 159.828 14.5795 160.736 14.9507C161.664 15.3013 162.396 15.8065 162.932 16.4665C163.468 17.1264 163.85 17.91 164.077 18.8174C164.303 19.7248 164.417 20.7353 164.417 21.8489V31.0361H159.808V22.4057C159.808 20.9209 159.612 19.8691 159.22 19.2505C158.828 18.6318 158.096 18.3225 157.024 18.3225C156.694 18.3225 156.343 18.3431 155.972 18.3843C155.601 18.405 155.271 18.4359 154.982 18.4771V31.0361H150.373V15.3219ZM168.434 10.7128L173.043 9.97043V14.7651H178.58V18.6009H173.043V24.3236C173.043 25.2928 173.208 26.0662 173.538 26.6436C173.889 27.221 174.579 27.5097 175.611 27.5097C176.106 27.5097 176.611 27.4685 177.126 27.386C177.663 27.2829 178.147 27.1488 178.58 26.9838L179.23 30.5721C178.673 30.799 178.054 30.9949 177.374 31.1599C176.693 31.3248 175.858 31.4073 174.868 31.4073C173.61 31.4073 172.569 31.2424 171.744 30.9124C170.919 30.5618 170.259 30.0875 169.764 29.4895C169.269 28.8708 168.919 28.1284 168.712 27.2622C168.527 26.3961 168.434 25.4372 168.434 24.3854V10.7128Z" fill="#263238"/>
<rect x="0.75" y="3.47363" width="10.3112" height="10.3112" fill="#3EBA59"/>
<rect x="0.75" y="13.7852" width="10.3112" height="11.4568" fill="#83EBFF"/>
<rect x="0.75" y="25.2412" width="10.3112" height="10.3112" fill="#20C1E1"/>
<rect x="11.061" y="3.47363" width="11.4568" height="10.3112" fill="#83EBFF"/>
<rect x="11.061" y="25.2412" width="11.4568" height="10.3112" fill="#83EBFF"/>
<rect x="22.5181" y="3.47363" width="10.3112" height="10.3112" fill="#20C1E1"/>
<rect x="22.5181" y="13.7852" width="10.3112" height="11.4568" fill="#83EBFF"/>
<rect x="22.5181" y="25.2412" width="10.3112" height="10.3112" fill="#3EBA59"/>
<rect x="6.47852" y="9.20215" width="20.6223" height="20.6223" fill="white"/>
</svg>
